<?xml version="1.0" encoding="UTF-8" standalone="no"?>
<!DOCTYPE svg PUBLIC "-//W3C//DTD SVG 1.1//EN" "http://www.w3.org/Graphics/SVG/1.1/DTD/svg11.dtd">
<!-- Created with Vectornator (http://vectornator.io/) -->
<svg height="32.0pt" stroke-miterlimit="10" style="fill-rule:nonzero;clip-rule:evenodd;stroke-linecap:round;stroke-linejoin:round;" version="1.1" viewBox="0 0 51 32" width="51.0pt" xml:space="preserve" xmlns="http://www.w3.org/2000/svg" xmlns:xlink="http://www.w3.org/1999/xlink">
<defs/>
<g id="Untitled">
<path d="M49.7196 15.0277C50.0356 14.8193 50.2625 14.5619 50.4008 14.2543C50.539 13.9472 50.608 13.5655 50.608 13.1091C50.608 12.509 50.4243 12.0108 50.0581 11.6143C48.9725 14.8096 46.3271 18.2091 42.5476 21.3181L45.587 21.3181C47.4729 21.3181 48.7615 20.8919 49.4528 20.0393C49.9365 19.4545 50.1787 18.6613 50.1787 17.6598C50.1787 17.0948 50.0231 16.6537 49.712 16.3364C49.4008 16.0191 48.9788 15.7861 48.4455 15.6375L48.4604 15.489C48.9344 15.4197 49.354 15.266 49.7196 15.028L49.7196 15.0277Z" fill="#000000" fill-rule="nonzero" opacity="1" stroke="none"/>
<path d="M8.71113 10.7005L2.9736 10.7005L0.949402 21.3186C1.79934 17.8659 4.57334 14.1091 8.71078 10.7002L8.71113 10.7005Z" fill="#000000" fill-rule="nonzero" opacity="1" stroke="none"/>
<path d="M26.5096 20.3516L20.8812 20.3516L20.2146 21.3184L13.6676 21.3184L15.4839 18.7754L7.35771 18.7754L6.86882 21.3184L0.94938 21.3184C0.618135 23.0554 0.580714 24.7151 1.19851 26.2152C3.99815 33.016 17.2109 33.9556 30.7101 28.3136C35.3014 26.3947 39.3342 23.9616 42.5476 21.3184L26.8204 21.3184L26.5093 20.3516L26.5096 20.3516Z" fill="#000000" fill-rule="nonzero" opacity="1" stroke="none"/>
<path d="M24.6285 14.8198L22.7769 17.5413L25.606 17.5413L24.7321 14.8198L24.6285 14.8198Z" fill="#000000" fill-rule="nonzero" opacity="1" stroke="none"/>
<path d="M17.1485 14.4479L8.18722 14.4479L7.95023 15.6673L16.4226 15.6673L15.9403 18.1362L21.2513 10.7002L29.4423 10.7002L32.7527 20.5877L34.656 10.7002L47.0981 10.7002C48.3125 10.7002 49.2013 10.9159 49.7643 11.3472C49.8731 11.4304 49.9708 11.5198 50.0585 11.6148C50.7632 9.54 50.8107 7.5515 50.0834 5.78461C47.2838-1.01614 34.0711-1.95577 20.5718 3.68618C15.9694 5.60962 11.9283 8.05002 8.71112 10.7005L17.8595 10.7005L17.1485 14.4483L17.1485 14.4479Z" fill="#000000" fill-rule="nonzero" opacity="1" stroke="none"/>
<path d="M43.4544 13.541L40.0328 13.541L39.7663 14.9092L43.1879 14.9092C43.5434 14.9092 43.805 14.8052 43.9731 14.5968C44.1113 14.4285 44.1806 14.2597 44.1806 14.0914C44.1806 13.7247 43.9384 13.541 43.4547 13.541L43.4544 13.541Z" fill="#000000" fill-rule="nonzero" opacity="1" stroke="none"/>
<path d="M42.9356 17.1543L39.3363 17.1543L39.055 18.6116L42.6394 18.6116C43.0341 18.6116 43.3157 18.5027 43.4838 18.2846C43.543 18.2052 43.5922 18.1162 43.6317 18.0167C43.6712 17.9179 43.691 17.8285 43.691 17.7492C43.691 17.3526 43.4391 17.1543 42.9356 17.1543Z" fill="#000000" fill-rule="nonzero" opacity="1" stroke="none"/>
</g>
</svg>
