<?xml version="1.0" encoding="UTF-8" standalone="no"?>
<!DOCTYPE svg PUBLIC "-//W3C//DTD SVG 1.1//EN" "http://www.w3.org/Graphics/SVG/1.1/DTD/svg11.dtd">
<svg width="100%" height="100%" viewBox="0 0 180 180" version="1.1" xmlns="http://www.w3.org/2000/svg" xmlns:xlink="http://www.w3.org/1999/xlink" xml:space="preserve" xmlns:serif="http://www.serif.com/" style="fill-rule:evenodd;clip-rule:evenodd;stroke-linejoin:round;stroke-miterlimit:2;">
    <g id="Background" transform="matrix(1.320885,0,0,1.320885,-28.91059,-26.102776)">
        <path d="M54.976,75.524C55.119,71.88 55.883,52.489 43.815,31.322C40.279,25.12 45.049,26.582 45.402,26.743C55.923,31.528 70.734,43.479 72.788,45.136C93.609,61.937 104.042,82.57 107.029,94.618C109.674,105.284 109.507,108.218 105.402,106.764C103.116,105.954 89.03,100.964 75.513,101.72C50.695,103.108 45.819,113.425 42.798,111.147C39.05,108.321 53.048,103.314 54.976,75.524Z" style="fill:rgb(35,31,32);"/>
        <path d="M58.527,114.942C63.758,114.717 76.308,113.79 88.474,113.076C145.703,109.72 145.924,109.291 146.852,110.149C150.149,113.195 132.597,123.205 131.684,123.799C121.878,130.175 117.711,130.477 119.798,132.104C122.459,134.18 128.652,129.03 130.129,128.003C138.882,121.915 140.135,123.937 148.849,130.026C153.467,133.252 156.64,133.065 155.183,135.275C153.237,138.224 146.039,132.376 142.788,130.086C137.255,126.188 136.409,127.952 127.827,133.953C116.156,142.115 111.94,124.435 103.533,128.559C95.415,132.541 93.786,141.647 81.299,131.767C74.537,126.417 73.25,127.13 66.324,132.25C57.365,138.872 55.993,136.435 46.837,130.042C39.851,125.164 39.438,129.362 30.279,135.098C26.963,137.175 23.212,135.156 25.212,133.238C25.889,132.588 26.714,133.999 35.24,127.16C38.713,124.374 33.424,120.982 33.359,118.503C33.295,116.001 34.689,116.531 58.527,114.942Z" style="fill:rgb(35,31,32);"/>
        <path d="M122.509,104.132C117.608,104.348 116.218,105.137 114.966,100.378C108.672,76.471 95.726,59.478 91.242,54.741C79.815,42.669 76.166,42.854 78.833,40.902C81.819,38.717 115.714,56.395 131.439,94.526C132.969,98.237 137.469,107.76 132.493,106.526C128.947,105.647 129.202,104.578 122.509,104.132Z" style="fill:rgb(35,31,32);"/>
    </g>
</svg>
